<svg fill="#000000" width="800px" height="800px" viewBox="-3.2 -3.2 38.40 38.40" version="1.1"
    xmlns="http://www.w3.org/2000/svg" stroke="#FFFFFF" stroke-width="0.00032"
    transform="matrix(1, 0, 0, 1, 0, 0)">
    <path fill="black"
        d="M 10.563 6.469 l -0.813 -1.25 c -5.625 3.781 -8.75 8.375 -8.75 12.156 c 0 3.656 2.688 5.375 4.969 5.375 c 2.875 0 4.906 -2.438 4.906 -5 c 0 -2.156 -1.375 -4 -3.219 -4.688 c -0.531 -0.188 -1.031 -0.344 -1.031 -1.25 c 0 -1.156 0.844 -2.875 3.938 -5.344 z M 22.969 6.469 l -0.813 -1.25 c -5.563 3.781 -8.75 8.375 -8.75 12.156 c 0 3.656 2.75 5.375 5.031 5.375 c 2.906 0 4.969 -2.438 4.969 -5 c 0 -2.156 -1.406 -4 -3.313 -4.688 c -0.531 -0.188 -1 -0.344 -1 -1.25 c 0 -1.156 0.875 -2.875 3.875 -5.344 z"></path>
</svg>